<?xml version="1.0" encoding="iso-8859-1"?>
<!-- Uploaded to: SVG Repo, www.svgrepo.com, Generator: SVG Repo Mixer Tools -->
<svg fill="#000000" height="800px" width="800px" version="1.1" id="Layer_1" xmlns="http://www.w3.org/2000/svg" xmlns:xlink="http://www.w3.org/1999/xlink" 
	 viewBox="0 0 512.002 512.002" xml:space="preserve">
<g>
	<g>
		<path d="M208.915,377.645l-33.285-87.411l0.018-13.243L123.1,291.386c-2.9,14.441-7.369,34.958-11.996,48.881
			c-2.056,6.185-8.736,9.532-14.92,7.476c-2.669-0.887-4.812-2.674-6.225-4.89l5.658,45.699l-28.661,93.673
			c-3.721,12.164,3.122,25.041,15.287,28.763c2.246,0.687,4.514,1.014,6.747,1.014c9.859,0,18.982-6.382,22.017-16.3l30.098-98.369
			c0.947-3.096,1.231-6.356,0.834-9.568l-8.921-72.04l3.046,0.048l28.062,73.698l-5.333,98.243
			c-0.69,12.702,9.048,23.558,21.75,24.247c0.425,0.023,0.847,0.035,1.269,0.035c12.148,0,22.313-9.508,22.98-21.784l5.599-103.122
			C210.562,383.873,210.06,380.655,208.915,377.645z"/>
	</g>
</g>
<g>
	<g>
		<path d="M197.005,46.493c-2.436-7.915-10.828-12.356-18.74-9.922c-3.306,1.017-6.635,1.905-9.976,2.719l-9.404-35.123
			c-0.784-2.925-3.745-4.704-6.694-4.022l-17.474,4.042c-4.879,1.129-9.951,1.129-14.83,0l-17.474-4.04
			c-2.951-0.682-5.912,1.096-6.694,4.022l-9.404,35.122c-3.339-0.815-6.669-1.702-9.975-2.719
			c-7.917-2.434-16.305,2.007-18.74,9.922c-2.435,7.914,2.006,16.304,9.92,18.74c6.504,2.001,13.07,3.661,19.677,4.997
			c-0.237,1.768-0.373,3.568-0.375,5.4c-0.029,22.443,18.14,40.661,40.583,40.69c22.443,0.029,40.659-18.14,40.69-40.583
			c0.002-1.89-0.135-3.747-0.382-5.569c6.504-1.325,12.968-2.965,19.37-4.936C194.998,62.798,199.44,54.408,197.005,46.493z"/>
	</g>
</g>
<g>
	<g>
		<path d="M148.201,135.162l-36.258-0.744c-7.573-0.155-14.89,2.739-20.307,8.034c-2.019,1.974-3.71,4.219-5.04,6.651l13.196-2.451
			l-69.807,30.921c-8.362,3.705-12.66,13.053-10.027,21.811l21.699,72.197c2.906,9.666,13.097,15.007,22.597,12.152
			c1.265-0.38,2.451-0.893,3.562-1.506c2.51,4.645,8.138,7.53,14.979,4.78c-3.7,2.574-4.952,7.57-2.752,11.623
			c2.295,4.224,7.579,5.956,11.991,3.67c0.932,8.071,2.015,16.123,3.392,24.529c0.308,1.868,1.774,3.423,3.746,3.746
			c2.474,0.405,4.808-1.271,5.213-3.746c3.972-24.242,6.49-55.102,6.474-56.223c-0.166-9.12-9.33-18.34-22.662-12.302
			c-4.133,1.937-7.067,3.391-11.193,5.724c-0.126-0.964-0.309-1.93-0.598-2.891c-1.922-6.396-15.222-50.645-17.092-56.869
			l55.174-24.439L83.03,203.756v38.133c9.085-3.796,23.283-1.69,29.343,2.491c15.945,11,14.296,27.094,14.031,28.684l49.266-13.496
			l0.126-94.814C175.819,148.432,163.463,135.182,148.201,135.162z"/>
	</g>
</g>
<g>
	<g>
		<path d="M445.045,482.225l-28.662-93.673l5.658-45.699c-1.411,2.216-3.555,4.003-6.225,4.89
			c-6.185,2.056-12.865-1.291-14.92-7.476c-4.627-13.923-9.095-34.439-11.996-48.881l-52.548-14.395l0.018,13.243l-33.284,87.411
			c-1.147,3.01-1.649,6.228-1.474,9.445l5.599,103.122c0.667,12.276,10.832,21.784,22.98,21.784c0.421,0,0.844-0.011,1.269-0.034
			c12.702-0.69,22.439-11.545,21.75-24.247l-5.333-98.243l28.062-73.698l3.046-0.048l-8.921,72.04
			c-0.398,3.213-0.114,6.473,0.834,9.569l30.098,98.369c3.034,9.918,12.159,16.3,22.017,16.3c2.232,0,4.5-0.327,6.747-1.014
			C441.923,507.266,448.767,494.389,445.045,482.225z"/>
	</g>
</g>
<g>
	<g>
		<path d="M454.401,46.495c-2.434-7.916-10.823-12.357-18.74-9.922c-3.306,1.017-6.634,1.905-9.975,2.719l-9.404-35.122
			c-0.784-2.925-3.745-4.704-6.694-4.022L392.114,4.19c-4.879,1.129-9.951,1.129-14.83,0L359.81,0.148
			c-2.951-0.682-5.912,1.096-6.694,4.022l-9.404,35.123c-3.339-0.816-6.669-1.702-9.975-2.719
			c-7.912-2.433-16.304,2.006-18.74,9.923c-2.437,7.913,2.005,16.303,9.92,18.739c6.403,1.97,12.867,3.611,19.37,4.936
			c-0.247,1.822-0.384,3.679-0.382,5.569c0.03,22.443,18.248,40.612,40.69,40.583s40.612-18.248,40.583-40.69
			c-0.002-1.832-0.138-3.632-0.375-5.4c6.606-1.336,13.172-2.995,19.677-4.997C452.394,62.801,456.837,54.41,454.401,46.495z"/>
	</g>
</g>
<g>
	<g>
		<path d="M482.017,177.573l-69.807-30.921l13.196,2.451c-1.329-2.432-3.021-4.677-5.04-6.651
			c-5.418-5.294-12.734-8.188-20.307-8.033l-36.258,0.744c-15.262,0.02-27.618,13.27-27.596,29.593l0.126,94.814l49.266,13.496
			c-0.265-1.591-1.913-17.683,14.031-28.684c6.06-4.181,20.258-6.287,29.343-2.491v-38.133l-31.457-23.928l55.174,24.439
			c-1.87,6.222-15.17,50.472-17.092,56.869c-0.289,0.962-0.472,1.927-0.598,2.891c-4.125-2.333-7.06-3.787-11.193-5.724
			c-13.332-6.038-22.496,3.182-22.661,12.302c-0.016,1.121,2.502,31.982,6.474,56.223c0.405,2.473,2.739,4.151,5.213,3.746
			c1.971-0.323,3.436-1.878,3.746-3.746c1.377-8.406,2.46-16.458,3.392-24.529c4.411,2.286,9.695,0.554,11.991-3.67
			c2.201-4.053,0.95-9.051-2.752-11.623c6.841,2.751,12.469-0.135,14.981-4.779c1.111,0.613,2.297,1.125,3.561,1.506
			c9.5,2.855,19.69-2.486,22.597-12.152l21.699-72.197C494.676,190.625,490.378,181.276,482.017,177.573z"/>
	</g>
</g>
</svg>