<?xml version="1.0" encoding="UTF-8"?>
<!-- Created with Inkscape (http://www.inkscape.org/) -->
<svg width="704.2mm" height="704.2mm" version="1.1" viewBox="0 0 704.2 704.2" xmlns="http://www.w3.org/2000/svg" xmlns:cc="http://creativecommons.org/ns#" xmlns:dc="http://purl.org/dc/elements/1.1/" xmlns:rdf="http://www.w3.org/1999/02/22-rdf-syntax-ns#">
 <defs>
  <clipPath id="clipPath4720">
   <ellipse cx="506.45" cy="195.97" rx="99.672" ry="97.989" fill="none" stroke="#f00" stroke-width="2.3916"/>
  </clipPath>
 </defs>
 <metadata>
  <rdf:RDF>
   <cc:Work rdf:about="">
    <dc:format>image/svg+xml</dc:format>
    <dc:type rdf:resource="http://purl.org/dc/dcmitype/StillImage"/>
   </cc:Work>
  </rdf:RDF>
 </metadata>
 <g transform="translate(0 407.2)">
  <g transform="translate(102.1 -102.1)" fill="#4338ca" fill-opacity=".088687" stroke="#4338ca" stroke-width="4.2">
   <circle cx="500" cy="-12.017" r="100"/>
   <circle cx="-9.6782e-8" cy="-12.017" r="100"/>
   <circle cx="250" cy="-203" r="100"/>
   <circle cx="95.491" cy="297" r="100"/>
   <circle cx="404.51" cy="297" r="100"/>
  </g>
  <path d="m280.58 195.26c-0.17262 1.3436-0.078 2.0974 0.35895 2.8605 0.93227 1.6281 1.2108 3.9463 0.81826 6.8111-0.45465 3.3184-2.286 10.133-2.932 10.911-0.26779 0.32238-1.0968 1.9518-1.8421 3.6209-0.74533 1.6691-1.957 4.1266-2.6926 5.461s-1.6988 3.2952-2.1404 4.357c-0.44159 1.0619-0.98704 2.3317-1.2121 2.8218-0.66569 1.4499-6.1707 5.3088-7.5487 5.2916-0.74544-9e-3 -1.5666 0.3162-2.301 0.9121-0.92695 0.75217-2.4992 1.2355-8.3527 2.5676-3.9659 0.90254-8.1182 2.0252-9.2273 2.4947-1.2986 0.54977-6.976 1.8288-15.946 3.5925-7.6613 1.5063-14.843 3.0894-15.96 3.5181-6.5644 2.5195-16.978 3.7185-19.397 2.2333-0.47486-0.29159-1.6183-0.52515-2.541-0.51902-3.1453 0.0209-5.7502-0.62185-8.3279-2.0549-2.9626-1.647-5.5881-2.4907-8.719-2.8019-1.2101-0.12027-2.7063-0.43481-3.3249-0.69895-0.61857-0.26414-1.9087-0.81604-2.8669-1.2264-0.9582-0.41041-1.875-0.89211-2.0373-1.0704-0.30442-0.33442-8.7387-1.5792-9.6038-1.4174-0.26718 0.05-1.7215-0.23156-3.2317-0.62561-6.3006-1.6438-7.8447-2.0231-9.9953-2.4549-1.2436-0.24968-3.4931-0.91313-4.9988-1.4743-1.5057-0.56118-2.8761-0.99441-3.0453-0.96276-0.16917 0.0316-1.0235-0.79473-1.8986-1.8363-0.87504-1.0416-2.2844-2.2432-3.1318-2.6702-0.95956-0.48344-2.0973-1.5782-3.0159-2.9019-0.81126-1.169-1.9565-2.3264-2.5449-2.5718-0.92568-0.38611-1.162-0.79768-1.7532-3.0534-0.4436-1.6925-1.1829-3.3156-2.1074-4.6265-1.1993-1.7006-1.5243-2.555-2.059-5.4138-0.68441-3.6593-0.34167-4.5022 0.80602-1.9824 0.38817 0.85227 1.307 2.7725 2.0418 4.2672s1.6647 3.6884 2.0664 4.875c0.95093 2.8089 3.5354 7.0608 4.9144 8.0851 0.59793 0.44413 1.1184 0.97482 1.1567 1.1793 0.11017 0.58904 2.8249 2.0701 4.4063 2.404 0.79298 0.16743 1.8437 0.54949 2.335 0.84908 0.86394 0.52684 7.4242 2.5719 7.9404 2.4753 0.23022-0.0431 3.8247 1.3665 8.0427 3.1539 0.88258 0.37399 2.0662 0.59367 2.6302 0.48817 0.89075-0.1666 3.445 0.33965 6.051 1.1993 0.43535 0.14363 1.8053 0.32834 3.0443 0.41052 1.239 0.0821 3.8744 0.40487 5.8562 0.71716 2.9427 0.46366 3.7012 0.73678 4.1361 1.4895 0.29297 0.50697 0.70733 1.129 0.92084 1.3822 0.48613 0.57676 3.2722 1.0172 4.7436 0.74989 0.62845-0.11418 2.1328 0.23307 3.4743 0.80198 1.3013 0.55183 2.735 0.97888 3.186 0.94901 0.45102-0.0299 1.3859 0.12087 2.0775 0.33499 0.69159 0.21413 2.2421 0.41244 3.4456 0.44069 1.2035 0.0283 3.7292 0.19877 5.6127 0.37894 5.9502 0.56922 9.3855 0.71165 10.818 0.44854 0.76353-0.14023 3.2773-0.9794 5.5863-1.8648 2.3089-0.88541 4.9618-1.9007 5.8953-2.2561 0.9335-0.35545 2.4948-1.0512 3.4697-1.5462 1.4107-0.71628 2.8768-1.0392 7.1842-1.5824 2.9765-0.37533 6.2174-0.65872 7.2021-0.62976 2.7836 0.0819 6.0431-0.25803 6.4087-0.66831 0.18218-0.20446 0.40761-0.90314 0.50094-1.5526 0.27161-1.8905 3.3319-4.1794 6.2435-4.6697 1.4066-0.23688 2.5911-0.66126 3.0462-1.0914 0.40956-0.38709 1.3766-0.82199 2.149-0.96646 1.107-0.20704 1.695-0.65208 2.7772-2.1021 1.4253-1.9096 2.6014-2.4972 3.1647-1.5811 0.4619 0.75116 1.0062 0.55324 2.2412-0.81486 0.59084-0.65455 1.2464-1.2223 1.4568-1.2616 0.64799-0.1212 2.0974 1.181 1.7772 1.5968-0.16219 0.21068-1.1869 1.5554-2.2771 2.9884-1.857 2.4408-2.1039 2.6281-3.909 2.9657-1.38 0.25812-2.0219 0.20573-2.262-0.18463-0.2928-0.47619-0.42696-0.45687-1.0623 0.153-0.39991 0.3839-2.0792 1.0483-3.7317 1.4764-4.0308 1.0442-6.1127 1.9001-7.436 3.0572-1.9356 1.6924-1.0548 1.776 5.1864 0.49239 8.355-1.7184 12.287-3.2483 12.84-4.9961 0.16697-0.52761 0.96129-1.6953 1.7652-2.5948 0.80388-0.89952 2.1836-2.7153 3.0661-4.035s2.1031-2.8534 2.7126-3.4082c0.6095-0.55486 1.0778-1.1715 1.0406-1.3704-0.0372-0.19887 0.93398-1.7459 2.1582-3.4378 1.2242-1.692 2.9192-4.4523 3.7667-6.1341 1.2891-2.5585 1.5992-3.715 1.8986-7.0815 0.32726-3.6809 0.2618-4.4914-0.76895-9.516-1.2206-5.9499-1.5856-6.7345-4.6626-10.021-0.85741-0.91593-1.618-1.9811-1.6902-2.3671-0.18655-0.99741 0.80836-1.4656 1.8089-0.8512 3.2507 1.996 0.39682-4.749-3.9716-9.3866-1.5726-1.6696 7.9e-4 -3.3454 1.6338-1.7402 0.75468 0.74178 0.75902 0.73685 0.52964-0.59955-0.23606-1.3755-2.5025-4.7362-4.6646-6.9168-1.7605-1.7756-1.9541-3.7133-0.31941-3.196 1.1045 0.34957 0.93617-0.0913-1.1656-3.0522-0.99623-1.4035-2.5464-3.0279-3.4448-3.6098-1.8426-1.1935-2.4625-2.7261-1.1983-2.9625 0.42052-0.0787 0.74542-0.2455 0.72199-0.37074-0.13999-0.74846-1.9609-2.2344-3.4778-2.8382-2.7841-1.1081-4.6489-2.3972-4.516-3.1217 0.13576-0.73974 0.70633-0.90723 2.1832-0.64088 1.3635 0.2459 1.2712-0.32987-0.2769-1.7273-1.3549-1.223-4.4234-2.1318-6.124-1.8137-1.1329 0.21189-1.1798 0.16808-1.1411-1.0667 0.0463-1.4772 0.68039-3.1995 1.2148-3.2994 0.20009-0.0374 1.0387 0.27198 1.8636 0.68758 1.0868 0.54755 1.471 0.60152 1.3951 0.19602-0.14803-0.79147-1.3622-1.4514-3.5852-1.9485-2.1002-0.46971-2.8774-1.0304-2.2367-1.6137 0.30158-0.27454 0.13487-0.55475-0.61194-1.0283-1.0651-0.67541-2.0789-0.72898-1.9619-0.10366 0.037 0.19788 0.2592 0.43388 0.49377 0.52454 0.54655 0.21115 0.8696 1.8927 0.43892 2.2847-0.18047 0.16433-0.92139 0.12018-1.6465-0.098-0.94776-0.28528-1.4131-0.25839-1.6555 0.0957-0.5493 0.802-0.93691 0.67101-1.1341-0.38321-0.19238-1.0285-1.7313-2.1617-2.7532-2.0273-0.61976 0.0815-1.6542-0.21443-6.0509-1.731-1.534-0.52916-3.1089-0.9023-3.4997-0.8292-0.39079 0.0731-0.85361-0.0998-1.0285-0.38417-0.3874-0.63001 0.4018-0.5397 4.8294 0.55247 0.47895 0.11818 1.1874 0.0984 1.5745-0.0439 0.38698-0.14229 1.1847-0.0402 1.7728 0.22696 0.58799 0.26714 1.2622 0.44957 1.4983 0.40543 0.23603-0.0442 0.78327 0.18914 1.2162 0.51845 1.2781 0.97229 4.3233 0.68239 4.1222-0.39247-0.0371-0.19849-0.70401-0.49713-1.4819-0.66365-0.7779-0.16653-1.5662-0.46956-1.7518-0.6734-0.18559-0.20384-0.72072-0.19444-1.1892 0.0209-0.5455 0.25073-1.0002 0.21362-1.2643-0.10308-0.26173-0.31388-1.1882-0.39445-2.5351-0.22056-2.0528 0.26506-2.1268 0.23884-2.2476-0.79697-0.1843-1.5794-1.6759-2.0894-3.8776-1.326-0.94342 0.32708-1.8855 0.82757-2.0935 1.1122-0.20799 0.28461-0.93266 0.84206-1.6104 1.2388-1.1272 0.65992-1.3295 0.65945-2.375-5e-3 -1.685-1.0712-3.6618-1.5456-5.8332-1.3999-2.1996 0.14762-3.0013 0.80077-2.7344 2.2278 0.11228 0.60032-0.1049 1.0877-0.62703 1.4074-0.70617 0.43227-1.2696 1.1924-3.4952 4.7154-0.77643 1.229-1.4388 0.9904-1.9887-0.71657l-0.47157-1.4635-0.70657 1.431c-0.67282 1.3627-2.2518 2.8812-3.1755 3.054-0.59531 0.11135-2.0102-1.0832-2.1466-1.8122-0.1815-0.97038-0.97704-0.22852-1.4157 1.3202l-0.4056 1.432-0.39038-1.9856c-0.7082-3.6022 0.14268-4.9157 2.9878-4.6124 1.4801 0.15777 1.756 0.026 5.285-2.5236 2.0479-1.4795 3.7764-2.9789 3.8412-3.332 0.0648-0.35307 0.43331-0.70098 0.81894-0.77311 0.38562-0.0721 0.77527-0.32305 0.86592-0.55763 0.20118-0.52074 0.34114-0.55324-3.9817 0.92427-5.9324 2.0276-7.6488 3.0165-10.449 6.0205-4.1796 4.4833-4.5599 4.6975-4.9202 2.7715-0.16339-0.87358-0.23661-0.89569-0.96386-0.29096-1.3836 1.1505-3.9218 3.9526-5.6582 6.2465-1.9701 2.6027-5.1741 5.9157-7.6062 7.8648-0.94487 0.75725-3.2934 2.9559-5.219 4.8859-3.6838 3.6922-6.051 5.6846-6.955 5.8537-0.298 0.0557-0.80758-0.1194-1.1323-0.38916-0.78882-0.65524-0.10634-1.7606 2.414-3.9099 1.2416-1.0588 1.6673-1.6222 1.2292-1.6267-0.36864-4e-3 -1.0613 0.36844-1.5392 0.82719-0.47794 0.45879-0.98278 0.75619-1.1219 0.66094-0.1391-0.0953-1.3165 0.48185-2.6164 1.2825s-3.5426 2.1761-4.9838 3.0565c-1.4412 0.88048-2.9226 2.0037-3.292 2.496-0.36943 0.49231-1.1972 1.1131-1.8396 1.3796-0.64239 0.26643-1.3268 0.76976-1.5209 1.1185-0.19405 0.34875-0.56161 0.67314-0.81676 0.72086-0.41964 0.0785-1.2418 0.90518-4.8429 4.8696-1.7752 1.9543-3.9694 3.7198-4.3225 3.478-0.17531-0.12009-0.11263-0.71262 0.13934-1.3167 0.25194-0.60411 0.31811-1.2522 0.14701-1.4401-0.17111-0.18795 0.19972-1.0216 0.82404-1.8526 1.5934-2.1208 1.266-2.6771-0.53178-0.90372-0.82674 0.81555-1.4738 1.6398-1.4379 1.8316 0.0359 0.1918-0.71342 0.94551-1.6651 1.6749-0.95168 0.72936-1.7017 1.4789-1.6668 1.6656 0.0808 0.432-2.7696 2.923-3.5014 3.0598-0.30266 0.0566-1.56 1.093-2.794 2.3031-1.234 1.2101-2.5682 2.2609-2.9649 2.3351-0.80348 0.15028-1.7117-0.78073-1.937-1.9857-0.18862-1.0085-0.51471-0.93124-2.2473 0.53243-1.8809 1.589-4.0344 5.4131-4.1936 7.4469-0.0706 0.90132-0.43206 2.3578-0.80331 3.2366s-0.88225 2.8576-1.1356 4.3973c-0.2533 1.5397-0.6547 3.1988-0.89199 3.6869-1.5613 3.2115-1.8127 3.9393-1.6538 4.7886 0.25269 1.351-0.0869 4.0593-0.51906 4.1401-0.489 0.0915-1.5786-7.7769-1.3484-9.7376 0.0979-0.8339 0.90471-2.7894 1.7929-4.3456 0.88822-1.5562 1.7259-3.5796 1.8616-4.4964 0.13565-0.91681 0.75172-3.1296 1.369-4.9174 1.3092-3.7915 1.8634-4.394 8.9776-9.7609 3.4629-2.6124 5.248-3.7221 6.3057-3.9199 0.8115-0.15178 2.0537-0.71615 2.7604-1.2541 0.70677-0.53804 1.8787-1.2044 2.6043-1.481s1.8193-1.0394 2.4306-1.6951c0.61123-0.6558 1.4275-1.2515 1.814-1.3238 1.2668-0.23693 3.3025-1.8171 4.4614-3.463 0.96766-1.3743 1.2662-1.5751 1.9978-1.3435 1.1724 0.37102 2.8325-8e-3 3.8616-0.88265 0.46945-0.39884 1.21-0.79809 1.6456-0.88729 0.43564-0.0892 1.4907-0.83953 2.3446-1.6674 1.0687-1.0361 2.3012-1.758 3.9548-2.3162 1.3213-0.44603 2.7722-1.0525 3.2243-1.3476 0.45212-0.29517 2.8298-1.1908 5.2836-1.9904 3.7004-1.2057 4.5981-1.6392 5.2619-2.5413 0.44016-0.59816 1.2062-1.2972 1.7024-1.5534 1.0797-0.55749 8.1145-6.7238 8.3416-7.3119 0.0875-0.22655 0.78276-0.89251 1.5449-1.48 0.76215-0.58744 2.1748-2.2517 3.1392-3.6984 0.96438-1.4467 2.7602-3.4352 3.9908-4.4189s2.9481-2.3986 3.8168-3.1442c0.86871-0.74562 2.7208-2.0107 4.1158-2.8114 2.3189-1.3309 3.0981-1.5608 9.0869-2.6809 7.1638-1.3399 8.1885-1.3351 13.724 0.0647 1.6567 0.41892 3.4858 0.67863 4.0646 0.57717 0.57887-0.10151 1.8199 0.1106 2.7578 0.47134 1.0439 0.40146 2.2994 0.55036 3.2372 0.38391 0.84251-0.14951 1.913-0.0817 2.3789 0.15062 0.46588 0.23237 1.2376 0.34945 1.7149 0.26018 1.7341-0.32434 11.621 5.9471 13.723 8.7046 0.58262 0.76431 1.2844 1.583 1.5596 1.8192 1.6828 1.445 4.8248 7.3982 5.3299 10.099 0.65304 3.4915 1.8819 5.8771 5.2985 10.286l3.3751 4.3557 0.74634 3.9903c0.68118 3.642 0.84323 4.0699 1.8563 4.9012 1.4691 1.2056 3.679 7.7697 5.0081 14.876 0.70742 3.7822 1.1656 5.4066 1.7285 6.1288 1.1549 1.4816 1.7064 3.6517 1.445 5.6867zm-11.329 33.773c-0.75651 0.79758-1.5669 1.8719-1.8009 2.3873-0.39101 0.86137-0.37485 0.9061 0.19977 0.55276 0.34386-0.21144 0.76274-0.41016 0.93088-0.44161 0.49908-0.0933 2.242-2.8995 2.1399-3.4453-0.0584-0.31219-0.61649 0.0474-1.4696 0.94685zm-46.824-101.96c-0.66504 0.16059-1.7073 0.24633-2.3162 0.19052-1.5406-0.1412-1.2926 0.59486 0.35907 1.066 1.5539 0.44321 1.637 0.43432 2.8477-0.30508 1.2102-0.73902 0.66076-1.326-0.89055-0.9514zm3.349 117.74c-1.4522 0.38025-2.9586 0.89402-3.3475 1.1417-0.63152 0.40219-0.57947 0.45434 0.48691 0.4878 1.6072 0.0504 8.2488-1.134 9.3723-1.6714 1.6246-0.77713-3.5099-0.74406-6.5117 0.042zm-29.008-112.88c-0.30117 0.1852-0.51326 0.52023-0.47131 0.74449 0.0529 0.28271 0.29623 0.23118 0.79376-0.16813 0.79794-0.64039 0.53784-1.1053-0.32245-0.57636zm-1.399 1.7078c-0.40206 0.0752-1.068 1.0591-0.99202 1.4656 0.0328 0.17563 0.36935 0.0708 0.74778-0.23288 0.67942-0.5453 0.83761-1.3437 0.24424-1.2327zm73.414 81.958c-0.97281 1.0458-0.99057 1.0503-1.1334 0.28642-0.2124-1.1356-0.67655-0.87897-2.6703 1.4768-1.8344 2.1674-3.2381 2.8963-3.4452 1.789-0.0818-0.43735-0.29251-0.49729-0.73132-0.208-0.33904 0.22346-1.0168 0.57406-1.5061 0.77906-0.48937 0.20496-1.2609 0.66284-1.7145 1.0174-1.0622 0.83033-2.3396 0.73601-2.512-0.18552-0.15542-0.83095-0.5804-0.84785-1.1303-0.045-0.46775 0.68293-7.4399 2.2154-7.8799 1.732-0.16404-0.18021-0.61999-0.15515-1.0132 0.0557-0.98585 0.52866-2.6376 0.37515-2.7557-0.25614-0.0948-0.507 2.3547-1.8647 3.8784-2.1497 0.40638-0.076 1.6309-0.75017 2.7212-1.4981 2.321-1.5923 3.0087-1.7837 3.7853-1.0536 0.46174 0.43407 0.71182 0.42377 1.307-0.0539 0.96727-0.77628 3.1396-1.0098 3.8042-0.40887 0.62002 0.56063 1.6557 0.0422 1.8318-0.91692 0.0671-0.36589-0.12239-0.7597-0.42119-0.87514-0.71662-0.27683-0.36686-1.1227 0.53387-1.2911 1.1182-0.20915 1.998 0.0571 2.1066 0.6375 0.12874 0.68832 0.95678 0.5196 2.5362-0.5167 0.69586-0.45658 1.6559-0.90321 2.1334-0.99252 0.47749-0.0893 1.0154 0.0772 1.1955 0.36991 0.18002 0.29276 0.67676 0.46693 1.1039 0.38704 1.1268-0.21075 1.1154 0.69528-0.0241 1.9202zm-2.4145 1.899c-0.18596 0.16927-0.37218 0.12556-0.41383-0.0971-0.0417-0.22268 0.0963-0.43702 0.30658-0.47635 0.21026-0.0393 0.39648 4e-3 0.41382 0.097 0.0173 0.0927-0.12062 0.30708-0.30657 0.47639zm-18.022-72.798c-0.13348 0.0262-0.78354-0.11756-1.4445-0.31901-0.69542-0.21191-2.2239-0.17613-3.6274 0.085-2.1029 0.39134-2.4712 0.35449-2.7685-0.27594-0.3931-0.83355-1.4578-0.74774-3.215 0.25914-0.73028 0.41846-1.2809 0.54751-1.478 0.34651-0.17283-0.1762-0.63602-0.37516-1.0294-0.44209-0.83084-0.14139-1.2274-1.63-0.6643-2.494 0.40316-0.61873 0.13501-0.55632-3.7126 0.86375-1.1468 0.42325-1.6413 0.43119-2.1193 0.0342-1.1078-0.92022-4.144-0.0516-6.4558 1.847-1.2903 1.0596-2.1635 1.5414-2.4411 1.3468-0.7049-0.49407-1.4007-2.298-0.92099-2.3877 0.23305-0.0436 0.47594 0.19986 0.53974 0.54098 0.0912 0.48762 0.21248 0.50415 0.56708 0.0772 0.25766-0.31012 0.29511-0.87376 0.0874-1.3143-0.31101-0.65942-0.22965-0.76176 0.56079-0.70563 0.54403 0.0386 1.4376-0.32767 2.1711-0.89006 0.68562-0.52565 2.0858-1.2285 3.1116-1.5619 2.4904-0.80948 7.3915-1.0599 8.4173-0.4301 0.44728 0.27466 1.4664 0.45914 2.2647 0.40997 0.7983-0.0491 1.8579 0.0453 2.3547 0.20983 1.3119 0.43459 4.867 0.94943 5.6494 0.81813 0.46066-0.0773 0.7286 0.19339 0.85376 0.86257 0.11933 0.63801 0.76333 1.3379 1.8623 2.0238 0.92393 0.5767 1.5707 1.0699 1.4372 1.0958zm-8.1848-7.2032c-0.39992 0.092-0.6426 0.0439-0.53932-0.10693 0.10327-0.1508 0.43047-0.22604 0.7271-0.16721 0.32778 0.065 0.25412 0.1725-0.18778 0.27414zm-10.918 40.596c-0.50941 0.4788-1.5638 0.8416-3.0854 1.0616-1.4148 0.20457-3.1328 0.76887-4.4286 1.4547-2.5521 1.3507-2.374 1.3111-2.5147 0.559-0.0815-0.43597-0.29408-0.49743-0.732-0.21163-1.4031 0.91569-3.3673 1.6899-3.9951 1.5746-0.45899-0.0842-0.66956-0.43709-0.66681-1.1175 5e-3 -1.2954-0.62786-1.5116-1.4111-0.48204-0.43551 0.57248-0.76611 0.72025-1.0999 0.49164-0.81766-0.55999-5.5268 2.7277-6.347 4.4312-0.11516 0.23916-0.3176-0.12921-0.44985-0.81854-0.2787-1.4524-1.0547-1.7489-2.1911-0.83686-0.43199 0.34669-1.5822 0.80571-2.5561 1.02-1.1008 0.24226-1.9713 0.68276-2.3012 1.1645-0.29183 0.42611-1.0571 0.87324-1.7006 0.9936-1.5198 0.28426-3.3666 1.9834-3.8303 3.5243-0.44236 1.4698-1.0495 1.6872-1.2794 0.45806-0.10976-0.58682 0.40442-1.691 1.482-3.1825 0.90755-1.2561 1.8525-2.7562 2.0998-3.3334 1.2173-2.8407 7.3198-6.8798 11.551-7.6456 1.3806-0.24984 3.086-0.70765 3.7898-1.0174 0.70374-0.30972 2.3838-0.62071 3.7336-0.69104 1.5386-0.0802 2.9594-0.37562 3.8086-0.79191 2.6761-1.3118 5.3609-1.456 5.5772-0.29941 0.0934 0.49955 0.74402 0.66853 2.7338 0.70997 2.8983 0.0604 3.5855 0.30115 4.1813 1.465 0.30147 0.58883 0.20689 0.97924-0.36821 1.5198zm-11.058-1.8978c-0.24299 0.15521-0.0117 0.20177 0.51394 0.10345 0.52566-0.0983 0.72447-0.22532 0.4418-0.28221-0.28266-0.0569-0.71274 0.0236-0.95574 0.17876zm-5.652 3.0997c-0.18596 0.16927-0.32392 0.38361-0.30657 0.47636 0.0173 0.0927 0.20356 0.13641 0.41383 0.0971 0.21026-0.0393 0.34821-0.25371 0.30656-0.4764-0.0416-0.22265-0.22787-0.26636-0.41382-0.097zm-3.4763-1.9216c-0.1845 0.0345-0.50136 0.36085-0.70413 0.7252-0.29898 0.53726-0.2635 0.64279 0.18788 0.55837 0.30606-0.0573 0.64974-0.24023 0.76371-0.40664 0.29516-0.43097 0.1484-0.95097-0.24746-0.87693zm-7.4312 3.2957c-0.22303 0.32565-0.21228 0.50794 0.0273 0.46313 0.51029-0.0954 0.87783-0.6321 0.57496-0.83952-0.12897-0.0883-0.39997 0.0811-0.60223 0.37639zm19.997-22.446c-0.19834 0.18053-0.46955 0.25361-0.60274 0.16239-0.32506-0.22262 0.018-1.0585 0.46906-1.1428 0.48857-0.0914 0.5794 0.57471 0.13368 0.98043zm12.256 74.377c-0.41963 0.37429-1.1451 1.0172-1.6122 1.4286-1.2244 1.0786-4.1547 2.4334-4.9482 2.2878-0.49954-0.0917-0.67497-0.42524-0.66452-1.2633l0.0143-1.1388-1.6902 1.2438c-2.715 1.9978-3.5561 2.2768-4.0037 1.3277-0.38676-0.82013-0.63498-0.79147-2.734 0.31535-0.68483 0.3611-0.91553 0.25223-1.4529-0.6855-0.74155-1.2942-0.85869-1.2935-3.1179 0.0187-1.6304 0.94691-1.752 0.96606-2.9343 0.46169-0.74821-0.31923-2.3841-0.43761-4.1588-0.30095-1.609 0.12391-3.4536 0.25731-4.0991 0.29642-0.64553 0.0392-2.7436 0.24532-4.6623 0.45816-2.5143 0.27893-3.7654 0.23651-4.4797-0.1519-0.54508-0.29641-1.0051-0.61407-1.0223-0.70594-0.0355-0.18985 10.341-2.6975 12.678-3.0639 0.89962-0.141 1.705-0.0356 1.9473 0.25497 0.32686 0.39199 0.94756 0.3432 2.9711-0.23336 1.7336-0.49393 2.6701-0.60563 2.9059-0.34653 0.20416 0.22422 1.4335 0.17922 2.9742-0.10895 1.8247-0.34127 2.8339-0.34891 3.3069-0.025 0.38287 0.26222 1.3639 0.3384 2.2424 0.1741 0.85894-0.16065 1.906-0.1572 2.3269 8e-3 0.60238 0.23596 1.0828 0.0551 2.2568-0.84983 1.7374-1.339 2.7584-1.1337 2.1453 0.43145-0.53867 1.3752 0.2504 1.6002 2.0685 0.58986 3.571-1.9845 5.7725-2.233 3.7425-0.42233zm-38.632-83.85c-0.5941 0.60503-2.1409 2.509-3.4374 4.2309-1.2964 1.722-2.5884 3.1741-2.8709 3.2269-0.90027 0.16838-1.1227-0.81825-0.5439-2.413 0.79857-2.2004-0.0978-1.8423-1.7631 0.70418-1.0889 1.6651-1.54 2.0582-2.3083 2.0112-0.70611-0.0431-1.2401 0.30515-2.0496 1.3366-1.157 1.4744-2.0942 1.9072-2.5323 1.1693-0.18283-0.30798-0.46317-0.14278-0.90961 0.53604-0.57123 0.86859-0.79183 0.95527-1.9214 0.75505-1.1426-0.20251-1.3322-0.12252-1.8122 0.76437-0.29484 0.54478-0.92235 1.0628-1.3944 1.1511-0.47214 0.0883-1.3718 0.72933-1.9994 1.4245-0.9913 1.0982-1.2559 1.219-2.0174 0.92063-0.78713-0.30831-0.97955-0.16767-1.8873 1.3797-0.55593 0.94766-1.1393 1.9696-1.2963 2.271-0.15701 0.30139-0.45073 0.57889-0.65273 0.61667-0.58182 0.10882-0.58725-0.77128-0.0141-2.282 0.62486-1.647 0.62097-1.7882-0.0458-1.6634-0.27873 0.0521-0.83041 0.60044-1.2259 1.2185-0.76096 1.189-1.3009 1.5063-1.426 0.8379-0.16304-0.87172 1.9392-3.0806 3.119-3.2773 0.64746-0.10797 1.9583-0.77991 2.913-1.4933 0.95467-0.71335 2.3834-1.6423 3.1749-2.0643s1.8678-1.3312 2.3918-2.0205c1.5442-2.0315 5.5742-4.8141 7.5816-5.2349 1.147-0.2404 2.1154-0.73328 2.7653-1.4075 0.55013-0.57062 1.1973-1.0743 1.4381-1.1194 0.24081-0.045 0.92588-0.46237 1.5224-0.92734 1.0366-0.80804 1.1204-0.81497 1.894-0.15641 1.0181 0.86669 1.0807 0.85063 2.4061-0.61768 1.362-1.5089 3.7044-2.4621 3.8703-1.5751 0.0615 0.32859-0.37433 1.0925-0.96843 1.6975zm-11.609 93.518c-0.37786 0.0707-1.4747-0.4249-2.4375-1.1012-1.5623-1.0975-2.017-1.2088-4.2307-1.0353-1.3641 0.10692-2.5086 0.0424-2.5433-0.14337-0.0347-0.18579-0.402-0.27438-0.81614-0.19692-0.41414 0.0775-1.4299-0.0887-2.2573-0.36915-0.82738-0.28049-1.9081-0.43446-2.4016-0.34215-0.49351 0.0923-1.1413-0.0349-1.4395-0.2826-0.56509-0.46942-2.6495-0.54585-4.6164-0.1693-0.65196 0.12471-1.7155-0.0896-2.467-0.49728-1.2496-0.67791-1.2924-0.75944-0.791-1.5065 0.45069-0.67151 0.69717-0.74843 1.6457-0.51368 0.77772 0.19248 1.2142 0.13208 1.4413-0.19942 0.59616-0.87047 2.6564-0.96579 3.7399-0.17297 0.68652 0.50237 1.6287 0.70908 2.857 0.62689 1.008-0.0675 2.4561-0.12148 3.218-0.12 0.76193 1e-3 1.7741-0.0427 2.2492-0.0982 0.47512-0.0554 1.2099 0.23807 1.6328 0.65225 0.42293 0.41417 0.92055 0.61505 1.1059 0.44637 0.18528-0.16867 0.94964-0.30637 1.6986-0.30594 1.0687 5.6e-4 1.5324 0.26084 2.1548 1.2096 0.43625 0.66483 1.2189 1.5231 1.7392 1.9071 1.1768 0.86865 1.4506 2.0374 0.51807 2.2118zm-27.465-15.673c-0.33723 0.17371-1.735 0.50502-3.1063 0.7363-1.3713 0.23127-2.8568 0.61773-3.3012 0.8588-0.65629 0.35604-0.91245 0.2672-1.3646-0.47331-0.38995-0.63856-0.83904-0.85879-1.4993-0.73529-0.51843 0.097-1.0629 0.0441-1.21-0.11741-0.14701-0.16151-1.019-0.27389-1.9376-0.2497-0.91866 0.0242-1.8369-0.13903-2.0405-0.36272-0.20363-0.22373-1.1394-0.26779-2.0794-0.098-1.3432 0.24268-1.9474 0.13194-2.822-0.51712-0.61203-0.45422-1.2708-1.0828-1.4639-1.3969-0.1963-0.31923-0.78311-0.4902-1.3308-0.38776-0.60252 0.1127-1.1044-0.06-1.3036-0.44861-0.1781-0.34752-0.64128-1.0454-1.0293-1.5509l-0.70547-0.91903 1.7211 0.42361c0.94662 0.23298 2.1529 0.35241 2.6807 0.26541 0.52777-0.087 1.3408 0.0319 1.8066 0.2643 0.46589 0.23237 1.3242 0.33325 1.9074 0.22417 0.66911-0.12515 1.2641 0.0555 1.6126 0.48973 0.40118 0.49987 0.94347 0.61487 1.9829 0.42047 0.78688-0.14718 1.8456-0.0792 2.3528 0.15098 0.50718 0.23022 1.6496 0.34924 2.5386 0.26447 0.889-0.0848 1.8475 4e-3 2.1299 0.19754 0.28244 0.19344 0.92533 0.27471 1.4286 0.18057 0.58533-0.10947 1.0354 0.084 1.249 0.53696 0.24899 0.52798 0.7322 0.66409 1.8994 0.535 1.1994-0.13265 1.6745 0.01 2.0314 0.60973 0.35167 0.59084 0.31558 0.86031-0.14717 1.0986zm-14.447-40.769c-0.52485 0.73219-1.3207 2.2339-1.7685 3.3372-0.98509 2.4267-1.5808 2.8633-2.5876 1.8968l-0.76165-0.73123-0.50805 0.91628c-0.8506 1.5342-2.3891 2.7754-3.5567 2.8694-0.88882 0.0716-1.195 0.34558-1.5546 1.3909-0.24625 0.71597-0.77237 1.47-1.1692 1.6756-0.39677 0.20565-0.9556 0.79934-1.2418 1.3194-0.48614 0.88314-0.55495 0.9061-1.0441 0.34836-0.42034-0.47935-0.66153-0.48643-1.2228-0.036-0.38453 0.30862-0.80828 0.48635-0.94166 0.39501-0.52171-0.35728-0.2043-3.0242 0.42868-3.6017 0.36831-0.33601 1.0038-1.3547 1.4122-2.2636 0.66684-1.4843 0.87253-1.6526 2.0184-1.652 1.4664 7.9e-4 3.3543-1.6034 4.5365-3.8548 0.60678-1.1556 0.87051-1.3274 2.037-1.3267 1.0044 5.6e-4 1.5789-0.24708 2.294-0.98886 0.52471-0.54426 1.172-1.0303 1.4384-1.0802 0.26638-0.0498 0.72499-0.40699 1.0192-0.79367 0.63761-0.83819 1.833-0.72105 2.0046 0.19642 0.0671 0.35867-0.30745 1.2512-0.8323 1.9834z" stroke-width=".38893"/>
  <path d="m301.32-370.99c-1.3483-0.01-2.4738 1.1782-2.4738 1.1782l32.709 45.773-57.348-10.98c-0.62838 3.1088 1.9513 4.0018 1.9513 4.0018l60.656 19.612 3.638 2.5797s9.5912 9.7896 12.7 17.264c3.1089 7.4745 2.5797 15.61 2.5797 15.61s-0.61647 6.5669-0.8971 10.262c-0.28063 3.695 0.37427 6.244 1.6371 9.9389 4.3966 13.891 19.304 19.115 23.994 19.317 1.6498-0.0318 11.693 0.88877 14.967-8.3721s-4.9578-16.838-4.9578-16.838-3.0869-2.6197-10.477-10.477c-7.39-7.8577-20.089-24.836-20.159-26.028-0.0702-1.1927-1.065-1.7466-1.065-1.7466l-0.99219-7.4083s4.101-1.1245 6.6807-1.9182 5.6224 0 5.6224 0 1.9844 0.13229 10.716 2.249 29.104 10.054 29.104 10.054 3.5057 0.72763 6.4161 0.26458c2.9104-0.46302 5.887-2.3812 5.887-2.3812s2.1828-1.8521 3.5719-3.9026c1.3891-2.0505 0.52916-7.6068 0.52916-7.6068s-0.39687-3.1089-5.1594-9.3266-14.684-8.7312-14.684-8.7312-9.7234-3.4396-20.174 4.0349c-10.451 7.4745-18.389 6.2838-21.63 6.1516-3.2412-0.13229-18.058-4.7625-18.058-4.7625s-41.407-44.516-43.392-46.831c-0.62012-0.72347-1.279-0.97536-1.8919-0.9798zm98.173 45.317c11.294 0.0156 24.081 11.55 21.988 18.898-2.9766 10.451-12.228 3.0605-15.214 2.1167-2.9858-0.94387-7.6068-3.1088-12.898-3.5719-8.6651-2.5136-6.1516-10.12-6.1516-10.12 3.0045-5.2824 7.507-7.3292 12.276-7.3226zm-33.334 49.388c2.1989-8e-3 5.4186 0.86122 7.9458 5.1935 4.2563 6.4546 8.8206 9.6087 12.816 13.751 3.5205 3.6503 5.4255 8.7459 0.65474 14.405-1.9392 1.3537-2.7335 1.5029-4.9516 1.5958-21.05 0.88144-29.938-29.526-18.996-34.523 0 0 1.0266-0.41693 2.5311-0.42273z" stroke="#000" stroke-opacity=".90055" stroke-width=".26458px"/>
  <g fill="none" stroke="#000">
   <path d="m154.52-158.14v109.15l-100.54 3.087v-142.88h70.034" stroke-width="4.2"/>
   <path d="m156.62-157.15h-33.501v-33.725" stroke-width="4.2"/>
   <path d="m123.73-189.39 31.402 31.625z" stroke-width="4.1985"/>
  </g>
  <g fill="none" stroke="#000">
   <ellipse cx="477.24" cy="166.96" rx="3.5057" ry="3.1089" stroke-width="1.2"/>
   <g clip-path="url(#clipPath4720)">
    <g stroke-width="2.3">
     <path d="m447.14 209.35c-2.4706-2.3839-3.4611-3.3676-3.4611-3.3676l-10.945-13.377s-1.6838-1.6838-1.5902-3.6482c0.0935-1.9644 0-2.9934 0-2.9934s0-1.4967 1.029-2.6192c1.029-1.1226 4.4901-5.0514 4.4901-5.0514l3.5547-2.1515s-0.28064-2.3386 6.0804-4.303c6.361-1.9644 20.954-15.248 20.954-15.248s9.671-9.2408 23.945-2.5972c2.4541 1.1422 5.2917 4.3656 5.2917 4.3656l7.5406 0.13229s3.5719-0.26458 5.9531 0.52917 13.097 3.5719 13.097 3.5719l12.568-1.9182s-4.101 4.1672-1.4552 3.3734c3.7368-1.311 6.3584-3.3964 10.385-3.175 0 0-6.9217 1.8375-5.0932 5.2917 1.4647 1.139 11.85-5.2737 15.875-2.712-3.5152 1.5034-6.4162 3.7703-6.4162 3.7703s19.221-2.3935 24.342-0.52916c-3.8086 1.7982-8.5328 5.7547-8.5328 5.7547s20.029-2.5743 25.929-0.39687c-1.2568 1.3229-5.9857 1.5109-8.4667 5.8208 4.0674 1.3995 10.191-4.248 13.56-2.1828-1.7907 1.2053-5.6885 2.0505-6.35 4.6302 4.1672-1.0583 7.5055-2.7575 9.9219-1.9844-10.35 5.7341-8.1359 8.9297-8.1359 8.9297s10.782-4.2995 14.684-1.5875c3.9026 2.712-2.4474 6.4162-2.4474 6.4162l11.112-6.1516s-1.3098 36.149-10.249 57.692c-1.8941 4.5649-25.933 33.258-25.933 33.258s-5.9792-11.86-10.939-16c-7.9958-6.6738-33.113 6.3526-85.687-32.928-30.308-17.867-31.58-16.325-34.611-18.615z"/>
     <ellipse cx="477.31" cy="167.09" rx="4.5641" ry="3.8365"/>
     <ellipse cx="477.37" cy="167.09" rx="9.5911" ry="8.599"/>
    </g>
    <path transform="matrix(.26458 0 0 .26458 0 -407.2)" d="m1807.2 2122c-19.768 0.069-38.406 11.009-47.985 26.882-3.7976 6.2933-6.1712 13.362-6.6266 20.837-1e-4 6.9578-1.1243 23.114 1.9393 29.075 8.5404 16.617 30.12 13.694 52.318 13.694 30.162 3e-4 54.967-16.415 54.967-42.769 3e-4 -26.354-24.451-47.719-54.613-47.719z" stroke-width="8.6929"/>
    <path d="m561.58 221.99c-3.8365-4.8948-5.6885-17.595-5.9531-23.019-0.26458-5.424-3.0427-12.965-10.054-12.435-7.0115 0.52916-9.1281 3.0427-18.521 5.0271-9.3927 1.9844-35.19 2.7781-35.19 2.7781s-2.4365-0.24045-8.4233 1.1627c-5.9868 1.4032-24.415-2.1515-34.611-4.2095-10.196-2.058-17.68-5.332-17.68-5.332" stroke-width="1.665"/>
    <path transform="matrix(.26458 0 0 .26458 0 -407.2)" d="m1985 2217.3a31.75 27.25 0 0 0-31.75 27.25 31.75 27.25 0 0 0 13.436 22.238c9.9049-1.0958 18.691-2.3388 25.314-3.7382 8.2677-1.7467 15.004-3.6017 20.869-5.4453a31.75 27.25 0 0 0 3.8809-13.055 31.75 27.25 0 0 0-31.75-27.25z" stroke-width="6.2929"/>
    <path d="m523.08 162.59s63.442 31.322 90.757 31.697c27.315 0.37417 13.283-10.851 13.283-10.851" stroke-width="2.3"/>
   </g>
  </g>
  <g transform="translate(2.6192 3.7418)">
   <ellipse cx="595.03" cy="-118.71" rx="1.3555" ry="1.2563"/>
   <circle cx="636.66" cy="-114.01" r="1.2862"/>
   <g stroke="#000">
    <path d="m633.11-113.96c-0.0468 2.5023 2.2684 2.7362 2.2684 2.7362s2.5257 0.39757 3.9055-0.58465c1.3798-0.98221 0.42095-3.2273 0.42095-3.2273z" fill="none" stroke-width=".26458px"/>
    <path d="m628.83-114.06c5.9401-4.3732 19.434-2.1983 19.41 3.5313-7.6004-7.7174-17.493-2.3386-17.493-2.3386z" stroke-width=".26458px"/>
    <path d="m646.67-112.11c-5.1594 4.994-13.527 4.2333-16.007-0.76068-0.40803-0.8215 3.8695-2.6128 3.8695-2.6128" fill="none" stroke-width=".765"/>
    <path d="m628.83-114.06c8.2085-7.5537 10.734-6.0102 12.231-6.2909 1.4967-0.28062 11.085-6.7352 11.085-6.7352l-0.56126 5.0514s-2.1983 2.3386-5.2385 3.7418c-3.0402 1.4032-2.9466-0.18709-6.2207 1.6838-3.2741 1.8709-3.4144 1.3096-3.4144 1.3096" stroke-width=".26458px"/>
    <path d="m608.6-113.85c-3.1337-0.98221-7.4368 0.74835-10.477 0.65482-3.0402-0.0936-8.3722-2.0112-9.3544-3.9756-0.51449-0.84192 9.5883-9.1674 19.831 3.3208z" fill="none" stroke-width=".765"/>
    <path transform="matrix(.26458 0 0 .26458 0 -407.2)" d="m2225.3 1096.2c-1.591-16.264 15.203-17.147 20.506-16.971 5.3033 0.1769 20.506-1.7678 37.83 3.182 17.324 4.9497-11.844-20.506-14.319-22.451-2.4749-1.9445-43.664-28.815-43.664-28.815s4.773-8.3085 21.213-2.2981c16.44 6.0104 49.498 28.284 57.276 36.77s11.49 14.849 22.097 20.506c10.607 5.6568 11.49 11.137 11.49 11.137s-5.6569-4.773-10.96-4.9497c7.4246 8.4852 10.607 18.738 5.1265 26.516-7.6014-15.203-20.683-17.147-45.962-25.102-0.6171-0.1942-1.2402-0.3775-1.8687-0.5502l-3.9682-3.5548-9.3125-4.625-13-2.75-15.062 1.4375-11.688 5.5-4.125 3.0625z" stroke-width="1px"/>
    <path d="m591.95-119.81c-1.1225 0.95882-2.5491 0.21047-0.81852 1.9176 1.7306 1.7072 2.8063 2.4322 4.3732 2.5725 1.5669 0.14033 3.1338-1.0757 3.1571-1.5201 0.0233-0.44434 0.45543-3.4171-0.42095-3.7184-0.87638-0.30122-2.666-0.65479-2.666-0.65479z" fill="none" stroke-width=".26458px"/>
    <path d="m595.6-65.438c4.4434 0.93543 16.511-1.5435 18.709 0 2.1983 1.5435 3.4144 1.8709 4.724 0.88866 1.3096-0.98221 2.058-2.3854 4.0224-0.93543 1.9644 1.4499 4.0692 1.637 4.0692 1.637l-10.337 0.93543s-1.1693-0.09353-1.5902 0.37417c-0.42095 0.46773-1.5435 0.7016-1.9644 0.37417-0.42095-0.3274-1.8709-0.88866-2.7596-0.98221-0.88868-0.09353-12.582-0.37417-14.874-2.2918z" stroke-width=".26458px"/>
   </g>
   <g fill="none" stroke="#000">
    <path d="m623.66-63.847-0.0468 5.0046s0.14033 0.8419-0.70157 1.5435c-0.84191 0.7016-14.359 3.3208-19.598-0.74835-5.2385-4.0692 0.0936 0.09353 0.0936 0.09353" stroke-width=".665"/>
    <path d="m600.84-85.877c-5.4256 8.7932-11.787 13.657-12.348 18.148-0.56126 4.4901 4.2095 13.377 4.2095 13.377" stroke-width=".465"/>
    <path d="m631.24-79.797c2.058 4.116 1.1226 13.19 1.1226 13.19" stroke-width=".465"/>
    <path d="m652.2-114.69s-0.92604 15.346-1.8521 17.992c-0.92604 2.6458-12.832 23.283-15.081 30.559-2.249 7.276-11.906 20.638-11.906 20.638s-5.9531 8.2021-13.229 7.0115-15.346-0.92604-15.346-0.92604-4.4979 0.13229-9.2604-5.2917-8.8635-8.2021-8.8635-8.2021-2.5135-4.2333-6.8792-11.906c-4.3656-7.6729-8.3344-11.642-9.1281-22.886-0.79375-11.245-1.3229-13.494-1.3229-13.494s-0.79375-4.101-4.6302-6.35c-3.8364-2.249-1.1906-8.2021-1.1906-8.2021l1.8521-2.6458 3.8365 3.175s3.7042 8.599 5.0271 8.7312c1.3229 0.13229-1.4552-10.054-0.26458-12.039 1.1906-1.9844 1.5875-1.9844 1.7198-3.9688 0.13229-1.9844-0.26458-2.6458 0.26459-4.4979 0.52916-1.8521 1.5875-3.7042 1.5875-3.7042s0.66145-0.79375 2.6458-1.5875c1.9844-0.79375 2.3812-0.79375 3.175-1.4552 0.79375-0.66145 0.92604-0.39687 1.8521-1.7198 0.92604-1.3229 1.1906-1.0583 1.7198-2.5135 0.52917-1.4552 0.92605-2.7781 0.92605-3.4396s1.0959-6.7629 2.0313-7.6048c0.93544-0.8419 1.5903-1.5902 2.2451-1.8709 0.65482-0.28064 2.8999-0.18709 2.8999-0.18709s1.4967 0.37418 2.8999 0.93544c1.4032 0.56127 1.5902 0.56127 3.087 1.029 1.4967 0.46772 2.6192 0.8419 3.3676 0.65481 0.74835-0.18709 2.8999-0.93545 2.8999-0.93545s5.9869-3.8353 7.39-3.274c-1.637 0.60804-7.2029 3.7418-5.7062 4.0224 1.4967 0.28063 2.6192 0.8419 3.5547 0.65481 0.93546-0.18709 1.2161-0.74835 2.5257 0.28063 1.3096 1.029 2.4322 1.8709 3.1805 2.1515 0.74835 0.28063 0.84191 0.37418 2.9934 0.65481 2.1515 0.28064 3.7418 0.37418 4.2095 0.65481 0.46773 0.28064 1.7773 1.2161 2.7128 1.9644 0.93546 0.74835 4.2095 1.8709 4.2095 1.8709s3.323 0.0571 4.1167-9e-3 1.1906 0.19844 1.2568 0.52917c0.0661 0.33073 0.0661 0.33073 0.0661 0.72761 0 0.39687-0.92604 0.39687 0 0.59531s1.1245 0 1.6536-0.13229c0.52916-0.1323 1.5875-0.39688 2.1828-0.39688s0.52916-0.13229 1.5214-0.13229h2.1167c2.3151 0 0.99219 0.26458 2.3812-0.0662 1.3891-0.33073 0.92604-0.19843 1.5214-0.33073 0.59532-0.13229 0.52917-0.13229 1.1245-0.26458s0.52917-0.19844 1.1245-0.26458c0.59531-0.0662-0.0661-0.13229 1.0583-0.19844 1.1245-0.0661 1.2568-0.19844 1.6536-0.13229 0.39688 0.0661-0.0661-0.39688 1.1906 0.19844 1.2568 0.59531 1.3229 0.46302 1.3891 0.7276 0.0661 0.26458 0 0.19844 0.13229 0.66146s0.0661 0.26458 0.46302 0.79375c0.39688 0.52917-0.13229 0.13229 0.52917 0.7276 0.66146 0.59532 0.59531 0.79375 0.92604 0.8599 0.33073 0.0661-0.0661 0.39687 0.99219 0.19844 1.0583-0.19844 1.1906-0.19844 1.5214-0.46302 0.33073-0.26459 0.33073-0.1323 0.66146-0.66146 0.33073-0.52917 0.46302-0.79375 0.85989-1.1245 0.39688-0.33073 0.99219-1.1245 0.99219-1.1245s-0.0787 8.4228-0.85989 10.517c-0.78119 2.0944-0.72761 14.486-0.72761 14.486z" stroke-width="1.365"/>
    <g stroke-width=".465">
     <path d="m591.74-139.3c7.6729-0.26458 18.256 7.6729 18.256 7.6729"/>
     <path d="m649.85-129.84c-15.061-1.3096-19.925 2.8063-22.825 2.7128-2.8999-0.0935-3.8353-0.74835-3.8353-0.74835"/>
     <path d="m593.91-141.91c15.528 1.3096 27.315 11.88 27.315 11.88"/>
     <path d="m594.38-146.87c10.664 2.4322 23.667 7.9513 23.667 7.9513"/>
     <path d="m651.54-132.93c-10.945-2.1515-17.306-0.65481-21.235-0.8419-3.9289-0.18709-5.9868-0.8419-5.9868-0.8419"/>
    </g>
    <path d="m606.23-90.416c-0.33073 4.2995-0.33073 4.2995-0.33073 4.2995s-0.39688 3.638 1.6536 3.1089c2.0505-0.52917 4.2333-1.1245 6.6146 0.19844 2.3812 1.3229 2.5135 1.0583 2.5135 1.0583s1.3891 2.6458 4.101 2.7781c2.712 0.13229 5.3578-0.99219 5.7547-1.7859 0.39687-0.79375-0.46302-1.1245 0.26458-1.3229 0.72761-0.19844 2.6458-0.26458 2.6458-1.2568 0-0.99219-0.52917-4.1672-0.52917-4.1672" stroke-width=".865"/>
   </g>
   <g stroke="#000">
    <path d="m610.36-83.504c1.8852 1.0583 3.4396 1.571 4.101 0.94258-2.0671-1.3891-4.101-0.94258-4.101-0.94258z" stroke-width=".26458px"/>
    <path d="m626.67-81.311c0.51451-0.19878 0.58466-0.77758 0.58466-0.77758l-0.58465 0.23386z" stroke-width=".26458px"/>
    <path d="m628.83-114.06s-2.6426 1.5201-2.6426 4.5135c0 2.9934-0.28061 12.441-0.28061 12.441" fill="none" stroke-width=".865"/>
    <path d="m616.97-111.18s0.14033 3.695-0.51448 4.6304c-0.65482 0.93543-2.1515 4.2095-2.4322 4.9578s-0.31525 0.81029-0.31525 0.81029" fill="none" stroke-width=".865"/>
    <path d="m603.41-57.954s10.173 2.4088 16.417 1.4967c0 0-5.1683 1.5435-7.0158 1.4733-1.8475-0.07017-6.6182-0.44437-9.4012-2.9701z" stroke-width=".26458px"/>
    <path d="m652.2-114.69s5.442-7.5864 6.2427-20.533c0.93441-15.11 6.4174-9.3248-2.4665-31.438-20.388-36.044-46.962-35.706-51.62-35.752-6.2052-0.0604-56.545-0.35727-57.46 51.211-5.8299 8.6774 8.4664 32.808 6.6146 35.454l1.8521-2.6458 3.8365 3.175s3.7042 8.599 5.0271 8.7312c1.3229 0.13229-1.4552-10.054-0.26458-12.039 1.1906-1.9844 1.5875-1.9844 1.7198-3.9688 0.13229-1.9844-0.26458-2.6458 0.26459-4.4979 0.52916-1.8521 1.5875-3.7042 1.5875-3.7042s0.66145-0.79375 2.6458-1.5875c1.9844-0.79375 2.3812-0.79375 3.175-1.4552 0.79375-0.66145 0.92604-0.39687 1.8521-1.7198 0.92604-1.3229 1.1906-1.0583 1.7198-2.5135 0.52917-1.4552 0.92605-2.7781 0.92605-3.4396s1.0959-6.7629 2.0313-7.6048c0.93544-0.8419 1.5903-1.5902 2.2451-1.8709 0.65482-0.28064 2.8999-0.18709 2.8999-0.18709s1.4967 0.37418 2.8999 0.93544c1.4032 0.56127 1.5902 0.56127 3.087 1.029 1.4967 0.46772 2.6192 0.8419 3.3676 0.65481 0.74835-0.18709 2.8999-0.93545 2.8999-0.93545s5.9869-3.8353 7.39-3.274c-1.637 0.60804-7.2029 3.7418-5.7062 4.0224 1.4967 0.28063 2.6192 0.8419 3.5547 0.65481 0.93546-0.18709 1.2161-0.74835 2.5257 0.28063 1.3096 1.029 2.4322 1.8709 3.1805 2.1515 0.74835 0.28063 0.84191 0.37418 2.9934 0.65481 2.1515 0.28064 3.7418 0.37418 4.2095 0.65481 0.46773 0.28064 1.7773 1.2161 2.7128 1.9644 0.93545 0.74835 4.2095 1.8709 4.2095 1.8709s3.323 0.0571 4.1167-9e-3 1.1906 0.19844 1.2568 0.52917c0.0661 0.33073 0.0661 0.33073 0.0661 0.72761 0 0.39687-0.92604 0.39687 0 0.59531s1.1245 0 1.6536-0.13229c0.52916-0.1323 1.5875-0.39688 2.1828-0.39688s0.52916-0.13229 1.5214-0.13229h2.1167c2.3151 0 0.99219 0.26458 2.3812-0.0662 1.3891-0.33073 0.92604-0.19843 1.5214-0.33073 0.59532-0.13229 0.52917-0.13229 1.1245-0.26458s0.52917-0.19844 1.1245-0.26458c0.59531-0.0662-0.0661-0.13229 1.0583-0.19844 1.1245-0.0661 1.2568-0.19844 1.6536-0.13229 0.39688 0.0661-0.0661-0.39688 1.1906 0.19844 1.2568 0.59531 1.3229 0.46302 1.3891 0.7276 0.0661 0.26458 0 0.19844 0.13229 0.66146s0.0661 0.26458 0.46302 0.79375c0.39688 0.52917-0.13229 0.13229 0.52917 0.7276 0.66146 0.59532 0.59531 0.79375 0.92604 0.8599 0.33073 0.0661-0.0661 0.39687 0.99219 0.19844 1.0583-0.19844 1.1906-0.19844 1.5214-0.46302 0.33073-0.26459 0.33073-0.1323 0.66146-0.66146 0.33073-0.52917 0.46302-0.79375 0.8599-1.1245s0.99219-1.1245 0.99219-1.1245-0.0787 8.4228-0.85989 10.517c-0.7812 2.0944-0.72762 14.486-0.72762 14.486z" stroke-width=".26458px"/>
   </g>
   <g fill="none" stroke="#000">
    <path d="m546.89-151.2s-5.4242 8.5989-4.7628 17.33-0.39688 21.431-0.39688 21.431-0.39687 4.7625 1.1906 7.0115 5.5562 8.2021 5.5562 8.2021 2.1167 2.6458 5.5562 1.7198c3.4396-0.92604 5.9657 0.79248 5.9657 0.79248" stroke-width="1.365"/>
    <path d="m543.45-133.74 0.0661-4.2995" stroke-width=".26458px"/>
    <path d="m543.85-122.89c1.1245-1.4552 0.59532-5.6224 0.59532-5.6224" stroke-width=".465"/>
    <path d="m543.65-115.15c-0.66146 3.3734 0.52916 7.3422 2.9104 9.4589 2.3812 2.1167 2.2818 1.9808 3.0427 2.4474s0.89297 0.32246 1.3229 0.59532c0.42995 0.27286 0.72761 0.99218 0.72761 0.99218" stroke-width=".26458px"/>
    <path d="m547.7-121.52c1.8709-3.5079 0.74835-8.6061-1.2628-10.29" stroke-width=".265"/>
    <path d="m555.14-105.1c-9.1673-5.0046-5.7062-8.0916-3.087-11.88" stroke-width=".965"/>
   </g>
  </g>
  <g fill="#4338ca" fill-opacity=".088687" stroke="#4338ca">
   <path d="m399.27 195.98-33.331-19.244v13.614h-56.658v11.258h56.658v13.615z" stroke-width=".2"/>
   <g stroke-width=".19119">
    <path d="m569.71 1.1957-28.602 25.753 12.948 4.207-17.508 53.885 10.707 3.479 17.508-53.885 12.948 4.2072z"/>
    <path d="m439.67-235.4 15.654 35.16 8.0022-11.014 45.838 33.303 6.6174-9.1082-45.838-33.303 8.0026-11.015z"/>
    <path d="m187.4-186.86 38.276-4.023-8.0022-11.014 45.838-33.303-6.6175-9.1081-45.838 33.303-8.0026-11.015z"/>
    <path d="m165.83 88.981 8.002-37.646-12.948 4.207-17.508-53.885-10.707 3.479 17.508 53.885-12.948 4.2072z"/>
   </g>
   <g stroke-width="1.3851">
    <path transform="matrix(.26458 0 0 .26458 0 -407.2)" d="m1740.8 1071.9v51.455h-527.95v42.551h527.95v51.459l125.98-72.732zm-933.13 51.455v42.551h216.2v-42.551z"/>
    <path transform="matrix(.26458 0 0 .26458 0 -407.2)" d="m1215.6 853.91-108.1 97.334 48.936 15.9-66.174 203.66-80.631 248.16 40.619 12.682 80.48-247.69 66.174-203.66 48.94 15.9zm-264.37 744.79-83.146 255.9 40.467 13.148 83.299-256.37z"/>
    <path transform="matrix(.26458 0 0 .26458 0 -407.2)" d="m734.11 1321.5 59.164 132.89 30.246-41.627 397.22 288.6 25.01-34.424-223.98-162.73-173.24-125.87 30.246-41.629zm664.53 456.51-25.01 34.422 204.81 148.8 25.01-34.424z"/>
    <path transform="matrix(.26458 0 0 .26458 0 -407.2)" d="m1873.8 1312.4-150.41 109.28 25.012 34.424 150.4-109.28zm-303.29 220.35-451.63 328.13-30.246-41.631-59.166 132.89 144.67-15.205-30.244-41.629 451.63-328.12z"/>
    <path transform="matrix(.26458 0 0 .26458 0 -407.2)" d="m1470.8 851.94-40.469 13.148 65.971 203.04 41.24-10.773zm125.24 385.45-41.24 10.773 163.88 504.39-48.938 15.9 108.1 97.334 30.244-142.29-48.938 15.902-66.174-203.66z"/>
   </g>
  </g>
 </g>
</svg>
